<svg id="Layer_1" data-name="Layer 1" xmlns="http://www.w3.org/2000/svg" viewBox="0 0 132.97 119.7"><defs><style>.cls-1{fill:#03a1d0;}.cls-2{fill:#49347b;}.cls-3{fill:#fcc06a;}.cls-4{fill:#f2855b;}</style></defs><title>Medyan Icons</title><path class="cls-1" d="M14.91,119.7l.54-27.11A19,19,0,0,1,0,73.93V38.4a19,19,0,0,1,19-19H35.71v7H19a12,12,0,0,0-12,12V73.93A12,12,0,0,0,19,86h3.56l-.29,14.6L34.88,86H81.36a12,12,0,0,0,12-12h7a19,19,0,0,1-19,19H38.07Z"/><path class="cls-2" d="M118.08,101.75,94.34,74.29H51.22A19.4,19.4,0,0,1,31.84,54.91V19.38A19.4,19.4,0,0,1,51.22,0h62.37A19.4,19.4,0,0,1,133,19.38V54.91a19.43,19.43,0,0,1-15.44,19Zm-66.86-94A11.65,11.65,0,0,0,39.58,19.38V54.91A11.65,11.65,0,0,0,51.22,66.54H97.88l12,13.93-.28-13.93h4a11.65,11.65,0,0,0,11.64-11.63V19.38A11.65,11.65,0,0,0,113.59,7.74Z"/><rect class="cls-3" x="54.1" y="17.86" width="54.77" height="5.42"/><rect class="cls-2" x="54.1" y="47.94" width="42.77" height="5.42"/><rect class="cls-4" x="54.1" y="35.03" width="17.81" height="5.42"/></svg>