<?xml version="1.0" encoding="utf-8"?>
<!-- Generator: Adobe Illustrator 22.1.0, SVG Export Plug-In . SVG Version: 6.00 Build 0)  -->
<svg version="1.1" xmlns="http://www.w3.org/2000/svg" xmlns:xlink="http://www.w3.org/1999/xlink" x="0px" y="0px"
	 viewBox="0 0 649.2 427.6" style="enable-background:new 0 0 649.2 427.6;" xml:space="preserve">
<style type="text/css">
	.st0{fill:#49347B;}
	.st1{fill:#03A1D0;}
	.st2{fill:#6B619D;}
	.st3{fill:#F2855B;}
	.st4{fill:#FCC06A;}
	.st5{fill:#FFFFFF;}
</style>
<g id="Layer_1">
</g>
<g id="Layer_3">
	<g>
		<g>
			<g>
				<g>
					<path class="st5" d="M183.7,357.3c-3.2,0-5.9,2.6-5.9,5.9c0,3.2,2.6,5.9,5.9,5.9c3.2,0,5.9-2.6,5.9-5.9
						C189.6,360,186.9,357.3,183.7,357.3z"/>
				</g>
				<g>
					<path class="st5" d="M165.8,357.3c-3.2,0-5.9,2.6-5.9,5.9c0,3.2,2.6,5.9,5.9,5.9c3.2,0,5.9-2.6,5.9-5.9
						C171.7,360,169.1,357.3,165.8,357.3z"/>
				</g>
				<g>
					<path class="st5" d="M81.2,357.3c-3.2,0-5.9,2.6-5.9,5.9c0,3.2,2.6,5.9,5.9,5.9c3.2,0,5.9-2.6,5.9-5.9
						C87.1,360,84.4,357.3,81.2,357.3z"/>
				</g>
				<g>
					<path class="st5" d="M63.3,357.3c-3.2,0-5.9,2.6-5.9,5.9c0,3.2,2.6,5.9,5.9,5.9c3.2,0,5.9-2.6,5.9-5.9
						C69.2,360,66.6,357.3,63.3,357.3z"/>
				</g>
				<g>
					<path class="st5" d="M10.8,307.3c-3.2,0-5.9,2.6-5.9,5.9c0,3.2,2.6,5.9,5.9,5.9c3.2,0,5.9-2.6,5.9-5.9
						C16.6,310,14,307.3,10.8,307.3z"/>
				</g>
				<g>
					<path class="st5" d="M249.7,327.9c0.3-6.1-1.8-11.8-6-16.2c-4.2-4.4-9.8-6.8-15.9-6.8h-3.9c-11.5,0-21.2,8.3-22.5,19.3
						c-0.5,4,0.1,7.9,1.8,11.6l1.2,2.7h-15.2l1.2-2.7c1.3-2.8,1.9-5.9,1.9-9c0-11.4-8.8-20.9-20-21.8v10.3c2.6,0.4,5,1.7,6.8,3.7
						c2.2,2.4,3.3,5.7,3,9c-0.6,5.9-5.9,10.5-12.1,10.5h-11.2l1.2-2.7c1.7-3.6,2.3-7.7,1.8-11.6c-1.3-11-11-19.3-22.5-19.3h-37v10.2
						h37.3c6.2,0,11.5,4.6,12.1,10.5c0.3,3.3-0.8,6.6-3,9c-2.2,2.4-5.4,3.8-8.7,3.8h-37.7v10.2l125.2,0
						C239.4,348.4,249.1,339.2,249.7,327.9z M227.8,338.5h-4.7c-6.4,0-11.7-5.2-11.7-11.7c0-6.4,5.2-11.7,11.7-11.7h4.7
						c6.4,0,11.7,5.2,11.7,11.7C239.5,333.2,234.3,338.5,227.8,338.5z"/>
				</g>
				<g>
					<path class="st5" d="M71.1,348.7h2.3c12.1,0,21.9-9.8,21.9-21.9c0-11.4-8.8-20.9-20-21.8v10.3c5.6,0.9,9.8,5.7,9.8,11.5
						c0,6.4-5.2,11.7-11.7,11.7h-2.3h-5.9v-48.1H54.9v58.3H71.1z"/>
				</g>
				<g>
					<path class="st5" d="M21.8,348.7h2.3c12.1,0,21.9-9.8,21.9-21.9c0-11.4-8.8-20.9-20-21.8v10.3c5.6,0.9,9.8,5.7,9.8,11.5
						c0,6.4-5.2,11.7-11.7,11.7h-2.3c-5.8,0-10.6-4.3-11.5-9.8H0C1,339.9,10.4,348.7,21.8,348.7z"/>
				</g>
			</g>
			<g>
				<g>
					<path class="st5" d="M32.3,378.8h3.6c3.6,0,6.6,1.3,9.1,3.8c2.5,2.5,3.8,5.6,3.8,9.1v35.9H38.7v-35.9c0-0.7-0.3-1.4-0.8-1.9
						c-0.5-0.5-1.2-0.8-2-0.8h-3.6c-0.7,0-1.4,0.3-1.9,0.8c-0.5,0.5-0.8,1.2-0.8,1.9v18l-10.2,2.5v-20.5c0-0.7-0.3-1.4-0.8-1.9
						c-0.5-0.5-1.2-0.8-2-0.8h-6.4v38.6H0v-48.8h16.6c2.8,0,5.4,0.9,7.9,2.7C26.9,379.7,29.5,378.8,32.3,378.8z"/>
				</g>
				<g>
					<path class="st5" d="M86,388.9H69.1c-0.8,0-1.4,0.3-2,0.8c-0.5,0.5-0.8,1.2-0.8,2v10.4l15-4v10.5l-15,3.9v2.1
						c0,0.7,0.3,1.4,0.8,1.9c0.5,0.5,1.2,0.8,1.9,0.8h17v10.2h-17c-3.6,0-6.6-1.3-9.1-3.8c-2.5-2.5-3.8-5.6-3.8-9.1v-23
						c0-3.5,1.3-6.5,3.7-9.1c2.5-2.5,5.6-3.8,9.2-3.8H86V388.9z"/>
				</g>
				<g>
					<path class="st5" d="M93.4,378.8h22.1c3.6,0,6.6,1.3,9.1,3.8c2.5,2.5,3.8,5.5,3.8,9.1v23.2c0,3.5-1.3,6.5-3.8,9
						c-2.5,2.5-5.6,3.7-9.1,3.7H93.4V378.8z M103.6,389.1v28.4h11.9c0.7,0,1.4-0.3,1.9-0.8c0.5-0.5,0.8-1.1,0.8-1.8v-23.2
						c0-0.7-0.3-1.3-0.8-1.8c-0.5-0.5-1.2-0.8-1.9-0.8H103.6z"/>
				</g>
				<g>
					<path class="st5" d="M169.1,378.8v19.5c0,3.5-1.2,6.5-3.6,8.9c-2.4,2.5-5.3,3.8-8.8,4v16.4h-10.2v-16.4c-3.5-0.2-6.4-1.5-8.8-4
						c-2.4-2.5-3.6-5.5-3.6-8.9v-19.5h10.3v19.5c0,0.8,0.3,1.4,0.8,2c0.5,0.5,1.2,0.8,2,0.8h9.1c0.8,0,1.4-0.3,1.9-0.8
						c0.5-0.5,0.8-1.2,0.8-2v-19.5H169.1z"/>
				</g>
				<g>
					<path class="st5" d="M188.5,378.8h9.2c3.6,0,6.6,1.3,9.1,3.8c2.5,2.5,3.8,5.6,3.8,9.1v35.9h-10.2v-18.1l-14.6,4v14.1h-10.2
						v-35.9c0-3.6,1.3-6.6,3.8-9.1C181.9,380.1,184.9,378.8,188.5,378.8z M197.7,389.1h-9.2c-0.7,0-1.4,0.3-1.9,0.8
						c-0.5,0.5-0.8,1.2-0.8,1.9V403l14.6-3.9v-7.4c0-0.7-0.3-1.4-0.8-1.9C199.1,389.3,198.4,389.1,197.7,389.1z"/>
				</g>
				<g>
					<path class="st5" d="M217.8,378.8h22.3c3.5,0,6.5,1.3,9,3.8c2.5,2.5,3.8,5.6,3.8,9.1v35.9h-10.2v-35.9c0-0.7-0.3-1.4-0.8-1.9
						c-0.5-0.5-1.1-0.8-1.9-0.8H228v38.6h-10.2V378.8z"/>
				</g>
			</g>
		</g>
		<g>
			<path class="st1" d="M368.8,188c-20,0-36.3-16.3-36.3-36.3s16.3-36.3,36.3-36.3c20,0,36.3,16.3,36.3,36.3S388.9,188,368.8,188z
				 M368.8,130.6c-11.7,0-21.2,9.5-21.2,21.2c0,11.7,9.5,21.2,21.2,21.2c11.7,0,21.2-9.5,21.2-21.2
				C390,140.1,380.5,130.6,368.8,130.6z"/>
		</g>
		<g>
			<path class="st1" d="M368.8,216.2c-35.5,0-64.4-28.9-64.4-64.4s28.9-64.4,64.4-64.4c5.5,0,11,0.7,16.2,2.1l-3.8,14.6
				c-4-1.1-8.2-1.6-12.4-1.6c-27.2,0-49.3,22.1-49.3,49.3s22.1,49.3,49.3,49.3c27.2,0,49.3-22.1,49.3-49.3c0-5.7-1-11.3-2.8-16.6
				l14.2-5.1c2.5,6.9,3.7,14.2,3.7,21.6C433.3,187.3,404.4,216.2,368.8,216.2z"/>
		</g>
		<g>
			<path class="st1" d="M368.8,246c-51.9,0-94.2-42.3-94.2-94.2c0-51.9,42.3-94.2,94.2-94.2v15.1c-43.6,0-79.1,35.5-79.1,79.1
				c0,43.6,35.5,79.1,79.1,79.1c43.6,0,79.1-35.5,79.1-79.1c0-2.7-0.1-5.4-0.4-8.1l15-1.5c0.3,3.2,0.5,6.4,0.5,9.6
				C463,203.7,420.8,246,368.8,246z"/>
		</g>
		<g>
			<path class="st2" d="M432.3,104.6c-9.5-12.7-22.4-22.2-37.2-27.4l5-14.3c17.7,6.2,33.1,17.5,44.3,32.7L432.3,104.6z"/>
		</g>
		<g>
			<path class="st1" d="M263.7,138.9l-15-1.8c6.6-54.8,49.4-98.1,104.1-105.3l2,15C306.9,53.1,269.5,91,263.7,138.9z"/>
		</g>
		<g>
			<path class="st3" d="M287.9,241.7c-13.6-12.3-24.4-27.7-31.3-44.6l14-5.7c6,14.8,15.5,28.3,27.4,39L287.9,241.7z"/>
		</g>
		<g>
			<path class="st1" d="M368.8,272.8c-13,0-25.7-2-37.9-6.1l4.7-14.4c10.7,3.5,21.8,5.3,33.2,5.3c58.4,0,105.9-47.5,105.9-105.9
				c0-8.6-1-17.1-3-25.3l14.7-3.6c2.3,9.4,3.5,19.2,3.5,28.9C489.9,218.5,435.6,272.8,368.8,272.8z"/>
		</g>
		<g>
			<path class="st3" d="M460.6,98.7c-16.4-28.3-45.4-47.7-77.6-51.9l2-15c36.8,4.9,70,27.1,88.7,59.3L460.6,98.7z"/>
		</g>
		<g>
			<path class="st1" d="M243.9,96.4L230,90.3c17.3-39.1,50.5-69.2,91-82.6l4.8,14.3C289.3,34.1,259.5,61.3,243.9,96.4z"/>
		</g>
		<g>
			<path class="st4" d="M270.2,267.1c-33.8-28.9-53.1-70.9-53.1-115.3h15.1c0,40,17.4,77.8,47.8,103.9L270.2,267.1z"/>
		</g>
		<g>
			<path class="st1" d="M395.7,301.2c-8.9,1.6-17.8,2.4-26.7,2.4c-8.4,0-16.7-0.7-25.1-2.1h0c-5.1-0.9-10.3-2-15.3-3.4l4-14.6
				c4.5,1.2,9.1,2.3,13.8,3c15.5,2.6,31.2,2.5,46.7-0.3c33-5.9,62.6-23.7,83.4-50.2l11.9,9.3C465.2,274.8,432.3,294.6,395.7,301.2
				L395.7,301.2z"/>
		</g>
		<g>
			<path class="st1" d="M508.7,210.8l-13.9-5.9c7.1-16.8,10.7-34.7,10.7-53.2c0-3.3-0.1-6.6-0.4-9.9l15.1-1.1
				c0.3,3.6,0.4,7.4,0.4,11C520.6,172.2,516.6,192.1,508.7,210.8z"/>
		</g>
		<g>
			<path class="st4" d="M495.5,100.3c-21-51.8-70.8-85.2-126.6-85.2V0c62.1,0,117.3,37.2,140.7,94.7L495.5,100.3z"/>
		</g>
		<g>
			<path class="st2" d="M534.6,251.5l-13.1-7.5c32.1-56.5,32.4-126.8,0.6-183.4l13.2-7.4C569.6,114.5,569.3,190.5,534.6,251.5z"/>
		</g>
		<g>
			<path class="st3" d="M590.4,231.2l-14.3-4.9c8.2-23.9,12.4-49,12.4-74.6c0-25.1-4-49.8-12-73.4l14.3-4.8
				c8.5,25.1,12.8,51.5,12.8,78.3C603.6,179,599.2,205.7,590.4,231.2z"/>
		</g>
		<g>
			<path class="st4" d="M647.4,184.8l-15-1.7c1.2-10.4,1.7-20.9,1.7-31.4c0-10.1-0.5-20.3-1.6-30.3l15-1.6
				c1.1,10.5,1.7,21.2,1.7,31.9C649.2,162.8,648.6,173.9,647.4,184.8z"/>
		</g>
		<g>
			<path class="st2" d="M203.1,251.5c-34.7-61-35-137-0.7-198.3l13.2,7.4c-31.7,56.7-31.5,127,0.6,183.4L203.1,251.5z"/>
		</g>
		<g>
			<path class="st3" d="M147.2,231.2c-8.8-25.5-13.2-52.3-13.2-79.5c0-26.8,4.3-53.1,12.8-78.3l14.3,4.8c-8,23.6-12,48.3-12,73.4
				c0,25.5,4.2,50.6,12.4,74.6L147.2,231.2z"/>
		</g>
		<g>
			<path class="st4" d="M90.3,184.8c-1.2-10.9-1.8-22-1.8-33.1c0-10.6,0.6-21.4,1.7-31.9l15,1.6c-1.1,10-1.6,20.2-1.6,30.3
				c0,10.5,0.6,21.1,1.7,31.4L90.3,184.8z"/>
		</g>
	</g>
</g>
</svg>
