<svg id="Layer_1" data-name="Layer 1" xmlns="http://www.w3.org/2000/svg" viewBox="0 0 120.78 74.26"><defs><style>.cls-1{fill:#03a1d0;}.cls-2{fill:#f2855b;}.cls-3{fill:#49347b;}</style></defs><title>Medyan Icons</title><rect class="cls-1" y="68.27" width="48.47" height="5.42"/><rect class="cls-2" x="93.31" y="9.5" width="5.42" height="18.72" transform="translate(14.79 73.42) rotate(-45)"/><path class="cls-3" d="M46.61,74.26l8.21-27L67.1,59.55l11.37-3.66,34.14-34.13a1.47,1.47,0,0,0,0-2.08L101.1,8.17a1.46,1.46,0,0,0-2.07,0L69.78,37.1l9,9.24-5.56,5.4L58.87,37,93.57,2.68a9.2,9.2,0,0,1,13,0l11.51,11.51a9.22,9.22,0,0,1,0,13L82.62,62.7l-17.4,5.59-.17.16L65,68.37ZM58.47,61.87l-.15.5.49-.16Z"/></svg>