<svg id="Layer_1" data-name="Layer 1" xmlns="http://www.w3.org/2000/svg" viewBox="0 0 101.2 180.41"><defs><style>.cls-1{fill:#fcc06a;}.cls-2{fill:#03a1d0;}.cls-3{fill:#f2855b;}.cls-4{fill:#49347b;}</style></defs><title>Medyan Icons</title><path class="cls-1" d="M29.39,72.23A36.34,36.34,0,0,1,.32,45.15l5.26-1.31a30.94,30.94,0,0,0,24.74,23Z"/><path class="cls-1" d="M46.86,71l-1.67-5.16A31.08,31.08,0,0,0,61.32,53.7l4.5,3A36.64,36.64,0,0,1,46.86,71Z"/><path class="cls-2" d="M31.46,49.6a13.87,13.87,0,1,1,12.83-2.38l-4.35-5.45A6.89,6.89,0,1,0,33.56,43Z"/><path class="cls-3" d="M29,59.89A24.44,24.44,0,1,1,46.66,58.2l-2.44-4.84a19,19,0,1,0-13.79,1.31Z"/><path class="cls-4" d="M57.49,180.41h-16V151.92c-3.28-2-9.3-6.36-11.71-12.29l-.32-.77c-2.29-5.64-9.28-22.81-13.44-26.56-5.79-5.21-9.53-12.12-9.53-17.62a11.37,11.37,0,0,1,4.81-9.05,12.19,12.19,0,0,1,11.33-1.36,20.65,20.65,0,0,1,2.86,1.23V49a12.37,12.37,0,1,1,24.74,0V67.21A12.35,12.35,0,0,1,63.34,69.7a12.36,12.36,0,0,1,19.33,3,12.25,12.25,0,0,1,6.16-1.65A12.39,12.39,0,0,1,101.2,83.43v44.24c0,11.16-8.09,23.94-19.11,26.44v14.4H74.34V146.8h3.88c8.21,0,15.24-10.52,15.24-19.13V83.43a4.63,4.63,0,1,0-9.25,0V94.68H76.46v-16a4.63,4.63,0,0,0-9.25,0v16H59.47v-16a4.63,4.63,0,0,0-9.26,0v16H42.47V49a4.63,4.63,0,1,0-9.26,0V98.55H25.73l-.51-2.88c-.16-.41-1.2-2.72-5.14-4.08a4.64,4.64,0,0,0-4.31.34,3.61,3.61,0,0,0-1.55,2.75c0,2.71,2.44,7.8,7,11.87,4.82,4.33,10.27,16.69,15.43,29.39l.32.77c1.8,4.43,8.11,8.45,10.18,9.52l2.1,1.08v25.36h8.28Z"/><path class="cls-1" d="M72,36.39H66.61a31,31,0,0,0-61.3-6.25L0,29.06a36.39,36.39,0,0,1,72,7.33Z"/></svg>