<svg id="Layer_1" data-name="Layer 1" xmlns="http://www.w3.org/2000/svg" viewBox="0 0 149.61 159.14"><defs><style>.cls-1{fill:#49347b;}.cls-2{fill:#fcc06a;}</style></defs><title>Medyan Icons</title><path class="cls-1" d="M86.5,159.14H63.71l-6.09-8.31A8.07,8.07,0,0,1,64.77,139h19.7a6.13,6.13,0,0,0,6-5.06l.07-.29.59-2.12H52.7v-3.09A43.7,43.7,0,0,0,41.86,99.84l-.2-.22A42.61,42.61,0,0,1,32,72.68,42.53,42.53,0,0,1,76.57,30.2a42.81,42.81,0,0,1,40.48,40.48,42.53,42.53,0,0,1-42.48,44.53v-6.16A36.37,36.37,0,0,0,110.89,71a36.58,36.58,0,0,0-34.6-34.6A36.37,36.37,0,0,0,46.35,95.62a49.55,49.55,0,0,1,12.42,29.77H99.29l-2.74,9.81a12.28,12.28,0,0,1-12.08,10H64.77A1.9,1.9,0,0,0,63,147.81L66.82,153H86.5Z"/><path class="cls-1" d="M53.51,75.85H47.34A30.62,30.62,0,0,1,77.92,45.27v6.17A24.44,24.44,0,0,0,53.51,75.85Z"/><path class="cls-2" d="M77.92,92.2V86A10.2,10.2,0,0,0,88.11,75.85h6.17A16.37,16.37,0,0,1,77.92,92.2Z"/><rect class="cls-1" x="127.97" y="70.71" width="21.64" height="6.17"/><rect class="cls-1" y="70.71" width="21.64" height="6.17"/><rect class="cls-1" x="115.67" y="108.76" width="6.17" height="17.97" transform="translate(-48.48 118.46) rotate(-45)"/><rect class="cls-1" x="27.06" y="19.13" width="6.17" height="20" transform="translate(-11.77 29.84) rotate(-45)"/><rect class="cls-1" x="21.87" y="114.66" width="17.97" height="6.17" transform="translate(-74.21 56.3) rotate(-45)"/><rect class="cls-1" x="109.47" y="26.05" width="20" height="6.17" transform="translate(14.4 93.02) rotate(-45)"/><rect class="cls-1" x="71.72" width="6.17" height="19.95"/></svg>