<svg id="Layer_1" data-name="Layer 1" xmlns="http://www.w3.org/2000/svg" viewBox="0 0 74.34 98.53"><defs><style>.cls-1{fill:#f2855b;}.cls-2{fill:#03a1d0;}.cls-3{fill:#49347b;}</style></defs><title>Medyan Icons</title><path class="cls-1" d="M37.17,57.89a20.72,20.72,0,0,1,0-41.44v6.17A14.54,14.54,0,1,0,45.3,25.1L48.76,20a20.72,20.72,0,0,1-11.59,37.9Z"/><path class="cls-2" d="M41.07,46l-2.48-5.64a3.51,3.51,0,0,0-.15-6.49,3.46,3.46,0,0,0-2.68.06A3.52,3.52,0,0,0,34,38.59l-5.64,2.48a9.68,9.68,0,1,1,12.76,5Z"/><path class="cls-3" d="M34.54,98.53c-.35-.42-8.64-10.41-17.08-22.87C5.87,58.55,0,45.6,0,37.17a37.17,37.17,0,0,1,74.34,0c0,9.87-7.91,25.71-23.5,47.07l-5.54-4c14.31-19.61,22.19-34.89,22.19-43a30.32,30.32,0,0,0-60.64,0c0,14.27,23.79,46,32.95,57Z"/></svg>