<svg id="Layer_1" data-name="Layer 1" xmlns="http://www.w3.org/2000/svg" viewBox="0 0 153.43 81.84"><defs><style>.cls-1{fill:#fcc06a;}.cls-2{fill:#49347b;}.cls-3{fill:#03a1d0;}.cls-4{fill:#f2855b;}</style></defs><title>Medyan Icons</title><path class="cls-1" d="M76.34,51.86A10.57,10.57,0,0,1,66.5,37.47,10.55,10.55,0,0,1,86,37.05l-5.67,2.49a4.35,4.35,0,1,0-8,3.51,4.29,4.29,0,0,0,2.4,2.31,4.35,4.35,0,0,0,3.34-.07L80.58,51A10.49,10.49,0,0,1,76.34,51.86Z"/><path class="cls-2" d="M77.54,81.84A94.22,94.22,0,0,1,1.66,43.2L0,40.92l1.66-2.28A94.19,94.19,0,0,1,77.54,0,93,93,0,0,1,134,18.91l-4.67,6.18A85.33,85.33,0,0,0,77.54,7.74,86.42,86.42,0,0,0,9.64,40.92a86.44,86.44,0,0,0,67.9,33.17,86.43,86.43,0,0,0,69.63-35.45l6.26,4.56A94.23,94.23,0,0,1,77.54,81.84Z"/><path class="cls-3" d="M76.33,72.65A31.67,31.67,0,1,1,108,41,31.7,31.7,0,0,1,76.33,72.65Zm0-56.36A24.7,24.7,0,1,0,101,41,24.72,24.72,0,0,0,76.33,16.29Z"/><path class="cls-4" d="M61.76,41h-6.2A20.8,20.8,0,0,1,76.33,20.21v6.2A14.59,14.59,0,0,0,61.76,41Z"/></svg>