<?xml version="1.0" encoding="utf-8"?>
<!-- Generator: Adobe Illustrator 22.1.0, SVG Export Plug-In . SVG Version: 6.00 Build 0)  -->
<svg version="1.1" xmlns="http://www.w3.org/2000/svg" xmlns:xlink="http://www.w3.org/1999/xlink" x="0px" y="0px"
	 viewBox="0 0 253 137.2" style="enable-background:new 0 0 253 137.2;" xml:space="preserve">
<style type="text/css">
	.st0{fill:#FFFFFF;}
</style>
<g id="Layer_1">
	<g>
		<g>
			<g>
				<g>
					<path class="st0" d="M183.7,67c-3.2,0-5.9,2.6-5.9,5.9c0,3.2,2.6,5.9,5.9,5.9c3.2,0,5.9-2.6,5.9-5.9
						C189.6,69.6,186.9,67,183.7,67z"/>
				</g>
				<g>
					<path class="st0" d="M165.8,67c-3.2,0-5.9,2.6-5.9,5.9c0,3.2,2.6,5.9,5.9,5.9c3.2,0,5.9-2.6,5.9-5.9
						C171.7,69.6,169.1,67,165.8,67z"/>
				</g>
				<g>
					<path class="st0" d="M81.2,67c-3.2,0-5.9,2.6-5.9,5.9c0,3.2,2.6,5.9,5.9,5.9c3.2,0,5.9-2.6,5.9-5.9C87.1,69.6,84.4,67,81.2,67z
						"/>
				</g>
				<g>
					<path class="st0" d="M63.3,67c-3.2,0-5.9,2.6-5.9,5.9c0,3.2,2.6,5.9,5.9,5.9c3.2,0,5.9-2.6,5.9-5.9C69.2,69.6,66.6,67,63.3,67z
						"/>
				</g>
				<g>
					<path class="st0" d="M10.8,16.9c-3.2,0-5.9,2.6-5.9,5.9c0,3.2,2.6,5.9,5.9,5.9c3.2,0,5.9-2.6,5.9-5.9
						C16.6,19.6,14,16.9,10.8,16.9z"/>
				</g>
				<g>
					<path class="st0" d="M249.7,37.5c0.3-6.1-1.8-11.8-6-16.2c-4.2-4.4-9.8-6.8-15.9-6.8h-3.9c-11.5,0-21.2,8.3-22.5,19.3
						c-0.5,4,0.1,7.9,1.8,11.6l1.2,2.7h-15.2l1.2-2.7c1.3-2.8,1.9-5.9,1.9-9c0-11.4-8.8-20.9-20-21.8v10.3c2.6,0.4,5,1.7,6.8,3.7
						c2.2,2.4,3.3,5.7,3,9c-0.6,5.9-5.9,10.5-12.1,10.5h-11.2l1.2-2.7c1.7-3.6,2.3-7.7,1.8-11.6c-1.3-11-11-19.3-22.5-19.3h-37v10.2
						h37.3c6.2,0,11.5,4.6,12.1,10.5c0.3,3.3-0.8,6.6-3,9c-2.2,2.4-5.4,3.8-8.7,3.8h-37.7v10.2l125.2,0
						C239.4,58,249.1,48.8,249.7,37.5z M227.8,48.1h-4.7c-6.4,0-11.7-5.2-11.7-11.7s5.2-11.7,11.7-11.7h4.7
						c6.4,0,11.7,5.2,11.7,11.7S234.3,48.1,227.8,48.1z"/>
				</g>
				<g>
					<path class="st0" d="M71.1,58.3h2.3c12.1,0,21.9-9.8,21.9-21.9c0-11.4-8.8-20.9-20-21.8v10.3c5.6,0.9,9.8,5.7,9.8,11.5
						c0,6.4-5.2,11.7-11.7,11.7h-2.3h-5.9V0H54.9v58.3H71.1z"/>
				</g>
				<g>
					<path class="st0" d="M21.8,58.3h2.3c12.1,0,21.9-9.8,21.9-21.9c0-11.4-8.8-20.9-20-21.8v10.3c5.6,0.9,9.8,5.7,9.8,11.5
						c0,6.4-5.2,11.7-11.7,11.7h-2.3c-5.8,0-10.6-4.3-11.5-9.8H0C1,49.5,10.4,58.3,21.8,58.3z"/>
				</g>
			</g>
			<g>
				<g>
					<path class="st0" d="M32.3,88.4h3.6c3.6,0,6.6,1.3,9.1,3.8c2.5,2.5,3.8,5.6,3.8,9.1v35.9H38.7v-35.9c0-0.7-0.3-1.4-0.8-1.9
						c-0.5-0.5-1.2-0.8-2-0.8h-3.6c-0.7,0-1.4,0.3-1.9,0.8c-0.5,0.5-0.8,1.2-0.8,1.9v18l-10.2,2.5v-20.5c0-0.7-0.3-1.4-0.8-1.9
						c-0.5-0.5-1.2-0.8-2-0.8h-6.4v38.6H0V88.4h16.6c2.8,0,5.4,0.9,7.9,2.7C26.9,89.3,29.5,88.4,32.3,88.4z"/>
				</g>
				<g>
					<path class="st0" d="M86,98.5H69.1c-0.8,0-1.4,0.3-2,0.8s-0.8,1.2-0.8,2v10.4l15-4v10.5l-15,3.9v2.1c0,0.7,0.3,1.4,0.8,1.9
						c0.5,0.5,1.2,0.8,1.9,0.8h17v10.2h-17c-3.6,0-6.6-1.3-9.1-3.8c-2.5-2.5-3.8-5.6-3.8-9.1v-23c0-3.5,1.3-6.5,3.7-9.1
						c2.5-2.5,5.6-3.8,9.2-3.8H86V98.5z"/>
				</g>
				<g>
					<path class="st0" d="M93.4,88.4h22.1c3.6,0,6.6,1.3,9.1,3.8c2.5,2.5,3.8,5.5,3.8,9.1v23.2c0,3.5-1.3,6.5-3.8,9
						c-2.5,2.5-5.6,3.7-9.1,3.7H93.4V88.4z M103.6,98.7V127h11.9c0.7,0,1.4-0.3,1.9-0.8c0.5-0.5,0.8-1.1,0.8-1.8v-23.2
						c0-0.7-0.3-1.3-0.8-1.8c-0.5-0.5-1.2-0.8-1.9-0.8H103.6z"/>
				</g>
				<g>
					<path class="st0" d="M169.1,88.4v19.5c0,3.5-1.2,6.5-3.6,8.9s-5.3,3.8-8.8,4v16.4h-10.2v-16.4c-3.5-0.2-6.4-1.5-8.8-4
						c-2.4-2.5-3.6-5.5-3.6-8.9V88.4h10.3v19.5c0,0.8,0.3,1.4,0.8,2c0.5,0.5,1.2,0.8,2,0.8h9.1c0.8,0,1.4-0.3,1.9-0.8s0.8-1.2,0.8-2
						V88.4H169.1z"/>
				</g>
				<g>
					<path class="st0" d="M188.5,88.4h9.2c3.6,0,6.6,1.3,9.1,3.8c2.5,2.5,3.8,5.6,3.8,9.1v35.9h-10.2v-18.1l-14.6,4v14.1h-10.2
						v-35.9c0-3.6,1.3-6.6,3.8-9.1C181.9,89.7,184.9,88.4,188.5,88.4z M197.7,98.7h-9.2c-0.7,0-1.4,0.3-1.9,0.8
						c-0.5,0.5-0.8,1.2-0.8,1.9v11.3l14.6-3.9v-7.4c0-0.7-0.3-1.4-0.8-1.9C199.1,98.9,198.4,98.7,197.7,98.7z"/>
				</g>
				<g>
					<path class="st0" d="M217.8,88.4h22.3c3.5,0,6.5,1.3,9,3.8c2.5,2.5,3.8,5.6,3.8,9.1v35.9h-10.2v-35.9c0-0.7-0.3-1.4-0.8-1.9
						c-0.5-0.5-1.1-0.8-1.9-0.8H228v38.6h-10.2V88.4z"/>
				</g>
			</g>
		</g>
	</g>
</g>
<g id="Layer_3">
</g>
</svg>
