<svg id="Layer_1" data-name="Layer 1" xmlns="http://www.w3.org/2000/svg" viewBox="0 0 124.83 178.14"><defs><style>.cls-1{fill:#fcc06a;}.cls-2{fill:#49347b;}.cls-3{fill:#f2855b;}.cls-4{fill:#03a1d0;}</style></defs><title>Medyan Icons</title><rect class="cls-1" x="36.7" y="36.49" width="38.88" height="5.42"/><path class="cls-2" d="M24.63,110.36l-.47-7.22C22.48,77.19,35.35,68.84,35.9,68.5L40,75.07l-2-3.29L40.05,75c-.34.23-7.51,5.23-8.24,20.86a34.45,34.45,0,0,1,11.35-4.11l1.06,7.67c-5.35.74-11.8,4.94-13.84,6.5Z"/><path class="cls-2" d="M87.45,106.76H43.75l-1-2.43A152.36,152.36,0,0,1,32.53,59l7.72-.59A146.26,146.26,0,0,0,49,99H82.19c8.68-22.94,9.49-45.2,9.17-56.65a12.59,12.59,0,0,0-3.58-8.44L65.6,11.11,43.42,33.93a12.59,12.59,0,0,0-3.58,8.44l-7.74-.22a20.33,20.33,0,0,1,5.76-13.62L65.6,0,93.34,28.53A20.33,20.33,0,0,1,99.1,42.15c.35,12.46-.58,37.11-10.68,62.18Z"/><path class="cls-2" d="M106.44,110.36l-5.75-4.4c-.07,0-7.44-5.62-13.84-6.5l1.06-7.67a34.6,34.6,0,0,1,11.34,4.1c-.76-15.7-8.1-20.77-8.18-20.82l4.1-6.57c.55.34,13.42,8.69,11.74,34.64Z"/><path class="cls-3" d="M65.6,79.14a15.81,15.81,0,1,1,0-31.61V53A10.39,10.39,0,1,0,76,63.34H81.4A15.82,15.82,0,0,1,65.6,79.14Z"/><path class="cls-2" d="M62.37,146.59,59.75,146c-4.75-1-6.82-6.72-8-10.92-.44-1.62-.78-3.21-1-4.54H40.31l-1.1-2C33.49,118.07,42,102.68,43,101l6.71,3.87c-1.73,3-5.78,12.07-4.45,18H57.5l.41,3.42a44.13,44.13,0,0,0,2.2,9.52l5.49-8.56,5.48,8.56a43.52,43.52,0,0,0,2.21-9.52l.41-3.41H85.93c1.33-5.93-2.72-15-4.46-18L88.19,101c1,1.73,9.52,17.12,3.8,27.6l-1.1,2H80.45c-.25,1.33-.59,2.92-1,4.54-1.15,4.2-3.22,9.9-8,10.92l-2.62.56-3.23-5Zm-.68-8Z"/><path class="cls-2" d="M102.79,178.14H17.86a17.86,17.86,0,0,1-8.94-33.32l3.88,6.71a10.11,10.11,0,0,0,5.06,18.87h84.93c6.16,0,13.12-2.69,14.18-10.25a12.13,12.13,0,0,0-10.2-13.63l-2.37-.35-.8-2.32a3.93,3.93,0,0,1,1-4,3.17,3.17,0,0,0,.06-4.42,3.28,3.28,0,0,0-4.32-.3,4.25,4.25,0,0,1-6.77-2.42,3.56,3.56,0,0,0-.91-1.59,3.13,3.13,0,0,0-3.12-.87l-2-7.47a10.88,10.88,0,0,1,10.81,3,11.13,11.13,0,0,1,1.07,1.31A10.9,10.9,0,0,1,112.9,140.3a19.91,19.91,0,0,1,11.74,20.93C123.19,171.5,114.62,178.14,102.79,178.14Z"/><path class="cls-2" d="M32.43,138.9l-6.34-4.44a12.25,12.25,0,0,1,7.85-4.65c1.21-3.9,4.72-6.88,5.61-7.59l4.83,6.06c-1.78,1.43-3.22,3.54-3.11,4.21l1.11,4.88-5-.15C36.22,137.2,33.35,137.59,32.43,138.9Z"/><path class="cls-4" d="M101.8,161.38l-5.88-3.76a4.7,4.7,0,0,0-1.43-6.49A4.7,4.7,0,0,0,88,152.56l-5.87-3.76a11.67,11.67,0,0,1,19.67,12.58Z"/><path class="cls-4" d="M31.79,157.29l-6.62-2.17A18.41,18.41,0,0,1,48.4,143.34L46.24,150a11.46,11.46,0,0,0-14.45,7.33Z"/></svg>