<svg id="Layer_1" data-name="Layer 1" xmlns="http://www.w3.org/2000/svg" viewBox="0 0 124.03 126.39"><defs><style>.cls-1{fill:#49347b;}.cls-2{fill:#fcc06a;}.cls-3{fill:#03a1d0;}.cls-4{fill:#f2855b;}</style></defs><title>Medyan Icons</title><path class="cls-1" d="M52.44,114.1H41.06A19.73,19.73,0,0,1,21.35,94.39V85.67h6.86v8.72a12.87,12.87,0,0,0,12.85,12.86H52.44a13,13,0,0,0,7.78-2.62L77.94,91.15l4.14,5.46L64.36,110.08A19.8,19.8,0,0,1,52.44,114.1Z"/><path class="cls-1" d="M116.27,40h-6.85c0-9.63-14.23-33.17-40.61-33.17-33.52,0-37.41,22.92-37.56,23.89l-6.78-1a33.08,33.08,0,0,1,7.31-15.12C41.88,2.54,57.49,0,68.81,0,100.13,0,116.27,28.05,116.27,40Z"/><path class="cls-1" d="M91.45,126.39c-.17-.78-4.13-19.3,9-30.8,10.47-9.17,10.85-31.4,10.85-31.62l6.85.08c0,1-.44,25.52-13.18,36.7-10,8.78-6.83,24-6.8,24.15Z"/><path class="cls-2" d="M83.19,76.78H44.58V72H83.19a6.52,6.52,0,0,0,6.51-6.51h4.8A11.32,11.32,0,0,1,83.19,76.78Z"/><path class="cls-2" d="M94.5,39.15H89.7a6.52,6.52,0,0,0-6.51-6.51H44.58V27.85H83.19A11.32,11.32,0,0,1,94.5,39.15Z"/><path class="cls-1" d="M115.87,67.43H87.69a8.17,8.17,0,0,1-8.16-8.16V44.75a8.17,8.17,0,0,1,8.16-8.16h26.65a8.15,8.15,0,0,1,8.12,7.31L124,58.42a8.14,8.14,0,0,1-8.11,9Zm-28.18-24a1.3,1.3,0,0,0-1.31,1.3V59.27a1.3,1.3,0,0,0,1.31,1.31h28.18a1.31,1.31,0,0,0,1.3-1.44l-1.53-14.52a1.3,1.3,0,0,0-1.3-1.17Z"/><rect class="cls-1" x="42.47" y="110.67" width="6.85" height="14.97"/><path class="cls-3" d="M52.88,48.31h0A8.29,8.29,0,0,0,44.59,40H30.54L24.78,54.87,18.79,40H10.47L22.11,65.47h5l4.33-8h3.88l8.09,8h9l-8.3-8.87h.5A8.29,8.29,0,0,0,52.88,48.31Zm-9.88,3H34.52L37.33,45H43a3.17,3.17,0,0,1,0,6.33Z"/><path class="cls-2" d="M58.75,76.78H10.3A10.31,10.31,0,0,1,0,66.48V38.14A10.3,10.3,0,0,1,10.3,27.85H58.75a10.3,10.3,0,0,1,10.3,10.29V66.48A10.31,10.31,0,0,1,58.75,76.78ZM10.3,32.64a5.5,5.5,0,0,0-5.5,5.5V66.48A5.5,5.5,0,0,0,10.3,72H58.75a5.51,5.51,0,0,0,5.5-5.5V38.14a5.51,5.51,0,0,0-5.5-5.5Z"/><rect class="cls-4" x="90.27" y="48.94" width="21.36" height="4.8"/></svg>