<svg id="Layer_1" data-name="Layer 1" xmlns="http://www.w3.org/2000/svg" viewBox="0 0 129.36 101.25"><defs><style>.cls-1{fill:#49347b;}.cls-2{fill:#03a1d0;}.cls-3{fill:#f2855b;}.cls-4{fill:#fcc06a;}</style></defs><title>Medyan Icons</title><path class="cls-1" d="M69.38,101.25a7,7,0,0,1-4.44-1.61l-26.69-22H10.33A10.34,10.34,0,0,1,0,67.3V36.11A10.34,10.34,0,0,1,10.33,25.78H30.72v6.85H10.33a3.48,3.48,0,0,0-3.48,3.48V67.3a3.47,3.47,0,0,0,3.48,3.47H40.71L69.3,94.35s.07.06.16,0,.08-.07.08-.13V9.16c0-.06,0-.09-.08-.13a.14.14,0,0,0-.16,0L50.87,24.25,46.51,19,64.94,3.77A7,7,0,0,1,76.39,9.16V94.24a6.94,6.94,0,0,1-4,6.33A7.13,7.13,0,0,1,69.38,101.25Z"/><path class="cls-2" d="M110.12,101.13,105.58,97a67,67,0,0,0-2-92.6L107.94,0a73.11,73.11,0,0,1,2.18,101.13Z"/><path class="cls-1" d="M99.24,89.2l-5.16-4.51a50,50,0,0,0,9.11-15.17L109.6,72A57.06,57.06,0,0,1,99.24,89.2Z"/><path class="cls-3" d="M112,62.07,105.94,61a51,51,0,0,0,.84-9.25,50.47,50.47,0,0,0-12.5-33.27l4.64-4.07A56.78,56.78,0,0,1,112,62.07Z"/><path class="cls-4" d="M86,77.28l-4.16-3.57A33.76,33.76,0,0,0,90,51.7H95.5A39.25,39.25,0,0,1,86,77.28Z"/><path class="cls-1" d="M88.78,44A33.54,33.54,0,0,0,82.26,30.7l4.79-3.88a39.73,39.73,0,0,1,7.74,15.75Z"/><path class="cls-4" d="M33.59,63H17.82A4.8,4.8,0,0,1,13,58.21v-7.6h4.8v7.6H33.59Z"/></svg>