<svg id="Layer_1" data-name="Layer 1" xmlns="http://www.w3.org/2000/svg" viewBox="0 0 124.43 124.81"><defs><style>.cls-1{fill:#49347b;}.cls-2{fill:#fcc06a;}.cls-3{fill:#03a1d0;}.cls-4{fill:#f2855b;}</style></defs><title>Medyan Icons</title><path class="cls-1" d="M74.32,124.81H49.92l-2.45-13.65A51.3,51.3,0,0,1,37.53,107l-10.34,7.51L9.83,97.13l7.66-10.2a51.07,51.07,0,0,1-4.14-9.83L0,74.7V50.3l13.27-2.38a50.09,50.09,0,0,1,3.91-9.54L9,26.66,26.28,9.41,38,17.53a50.28,50.28,0,0,1,9.54-4L49.92,0h24.4l2.43,13.57a50.28,50.28,0,0,1,9.54,4L98,9.41l17.26,17.25-8.15,11.72a50.35,50.35,0,0,1,3.9,9.5l13.47,2.42V74.7l-13.55,2.43a50.48,50.48,0,0,1-4.24,10L114,97.66,96.72,114.91l-10.8-7.51a50.6,50.6,0,0,1-9.15,3.76Zm-19.24-6.17H69.16l2.23-12.42,1.92-.5a44.44,44.44,0,0,0,11.25-4.61l1.7-1L96,106.9l10-10L99.3,87.38l1-1.72a44.28,44.28,0,0,0,5.1-12l.49-1.91,12.32-2.21V55.46L106,53.26l-.49-1.93a44,44,0,0,0-4.75-11.57l-1-1.7,7.43-10.68-10-10L86.6,24.83l-1.71-1A44.62,44.62,0,0,0,73.29,19l-1.92-.49L69.16,6.17H55.08L52.86,18.51,51,19a44.62,44.62,0,0,0-11.6,4.82l-1.71,1L27,17.42l-10,10,7.43,10.68-1,1.7a44.7,44.7,0,0,0-4.75,11.61l-.49,1.93L6.17,55.46V69.54l12.12,2.17.49,1.92a44.25,44.25,0,0,0,5,11.92l1.08,1.78L18,96.55l9.86,9.85,9.35-6.8,1.75,1.07a44.28,44.28,0,0,0,12,5l1.92.5Z"/><path class="cls-2" d="M62.12,95.6A33.23,33.23,0,0,1,43.21,35l3.51,5.06A27.07,27.07,0,1,0,87.06,72.9l5.68,2.4A33.2,33.2,0,0,1,62.12,95.6Z"/><path class="cls-3" d="M95.35,62.37H89.18A27.09,27.09,0,0,0,62.12,35.3V29.13A33.27,33.27,0,0,1,95.35,62.37Z"/><path class="cls-4" d="M62.12,76.94a14.58,14.58,0,1,1,12-22.87L69,57.58a8.41,8.41,0,1,0-6.91,13.19Z"/></svg>