<svg id="Layer_1" data-name="Layer 1" xmlns="http://www.w3.org/2000/svg" viewBox="0 0 141.12 141.14"><defs><style>.cls-1{fill:#fcc06a;}.cls-2{fill:#f2855b;}.cls-3{fill:#49347b;}</style></defs><title>Medyan Icons</title><rect class="cls-1" x="23.18" y="42.16" width="110.96" height="5.48"/><rect class="cls-2" x="3.43" y="67.52" width="119.53" height="6.17"/><rect class="cls-3" x="20.2" y="92.91" width="113.95" height="6.85"/><path class="cls-3" d="M70.56,141.14A70.56,70.56,0,0,1,70.56,0h1c.81,0,1.64,0,2.43,0l-.31,6.85c-.59,0-1.32,0-2,0h-1.1a63.68,63.68,0,1,0,31.66,8.41l3.41-5.94a70.57,70.57,0,0,1-35.07,131.8Z"/><path class="cls-3" d="M70.56,137.57l-1.71-1a76.22,76.22,0,0,1,0-132l3.43,5.93a69.36,69.36,0,0,0-1.72,119.11A69.38,69.38,0,0,0,94,35.42l5.9-3.48a76.12,76.12,0,0,1,10.51,38.64,76.47,76.47,0,0,1-38.09,66Z"/><rect class="cls-3" x="67.13" y="3.45" width="6.85" height="134.27"/></svg>