<svg id="Layer_1" data-name="Layer 1" xmlns="http://www.w3.org/2000/svg" viewBox="0 0 151.1 113.4"><defs><style>.cls-1{fill:#f2855b;}.cls-2{fill:#03a1d0;}.cls-3{fill:#fff;}.cls-4{fill:#49347b;}.cls-5{fill:#fcc06a;}</style></defs><title>Medyan Icons</title><path class="cls-1" d="M13.2,37.49H8.4C8.4,27,26,19.11,49.42,19.11c15.86,0,29.93,3.82,36.72,10l-3.21,3.56c-5.87-5.31-19-8.73-33.51-8.73C28.08,23.91,13.2,31.07,13.2,37.49Z"/><path class="cls-2" d="M13.2,53.48H8.4c0-8.13,10.92-15,27.81-17.45a91.69,91.69,0,0,1,13.21-.94c15.86,0,29.93,3.82,36.72,10l-3.21,3.56c-5.87-5.3-19-8.73-33.51-8.73a87.73,87.73,0,0,0-12.51.88C23.17,42.78,13.2,48.12,13.2,53.48Z"/><rect class="cls-3" x="33.38" y="33.27" width="10.01" height="10.01"/><path class="cls-4" d="M13.2,69.46H8.4C8.4,59,26,51.08,49.42,51.08c15.86,0,29.93,3.82,36.72,10L82.93,64.6c-5.87-5.3-19-8.73-33.51-8.73C28.08,55.87,13.2,63,13.2,69.46Z"/><path class="cls-4" d="M13.2,85.44H8.4C8.4,75,26,67.06,49.42,67.06c15.86,0,29.93,3.82,36.72,10l-3.21,3.56c-5.87-5.31-19-8.73-33.51-8.73C28.08,71.86,13.2,79,13.2,85.44Z"/><rect class="cls-3" y="1.59" width="26.52" height="111.81"/><rect class="cls-3" x="68.5" y="1.59" width="20.21" height="111.81"/><path class="cls-2" d="M75.59,37.49h-4.8c0-10.48,17.64-18.38,41-18.38,15.85,0,29.92,3.82,36.71,10l-3.21,3.56c-5.87-5.31-19-8.73-33.5-8.73C90.47,23.91,75.59,31.07,75.59,37.49Z"/><path class="cls-1" d="M75.59,53.48h-4.8c0-10.48,17.64-18.39,41-18.39,15.85,0,29.92,3.82,36.71,10l-3.21,3.56c-5.87-5.3-19-8.73-33.5-8.73C90.47,39.89,75.59,47.05,75.59,53.48Z"/><path class="cls-4" d="M75.59,69.46h-4.8c0-10.48,17.64-18.38,41-18.38,15.85,0,29.92,3.82,36.71,10l-3.21,3.55c-5.87-5.3-19-8.73-33.5-8.73C90.47,55.87,75.59,63,75.59,69.46Z"/><path class="cls-5" d="M75.59,85.44h-4.8c0-10.48,17.64-18.38,41-18.38v4.8C90.47,71.86,75.59,79,75.59,85.44Z"/><path class="cls-5" d="M145.32,80.59c-5-4.53-15.7-7.81-27.91-8.56l.29-4.79c13.45.83,25,4.49,30.83,9.79Z"/><rect class="cls-3" x="62.39" y="1.59" width="26.52" height="111.81"/><rect class="cls-3" x="130.89" y="1.59" width="20.21" height="111.81"/><path class="cls-4" d="M143.9,104.85H137c0-4.84-12.23-14.16-29-14.16-13.45,0-23.33,3.5-27.16,7l-2.3,2.08-2.3-2.08c-3.83-3.46-13.71-7-27.16-7-16.74,0-29,9.32-29,14.16H13.31v-88C13.31,5.9,31.77,0,49.14,0c12.07,0,23,2.62,29.46,7C85.08,2.62,96,0,108.06,0c17.37,0,35.84,5.9,35.84,16.84V74.22H137V16.84c0-4.07-11.29-10-29-10-13.45,0-23.33,3.5-27.16,7l-2.3,2.08-2.3-2.08c-3.83-3.46-13.71-7-27.16-7-17.69,0-29,5.92-29,10V93.31C27,87.8,38,83.84,49.14,83.84c12.07,0,23,2.62,29.46,7,6.48-4.33,17.4-7,29.46-7C126.15,83.84,143.9,94.25,143.9,104.85Z"/><rect class="cls-4" x="75.18" y="11.27" width="6.85" height="81.09"/><rect class="cls-3" x="45.12" y="45.48" width="25.11" height="15.98"/><rect class="cls-3" x="110.06" y="64.63" width="10.01" height="10.01"/></svg>