<svg id="Layer_1" data-name="Layer 1" xmlns="http://www.w3.org/2000/svg" viewBox="0 0 116.51 116.49"><defs><style>.cls-1{fill:#49347b;}.cls-2{fill:#f2855b;}.cls-3{fill:#03a1d0;}</style></defs><title>Medyan Icons</title><g id="WrY0Lt"><path class="cls-1" d="M58.28,116.49h-.77A58.26,58.26,0,0,1,17.42,16.68,58.29,58.29,0,1,1,99,100,57.88,57.88,0,0,1,58.28,116.49Zm0-109.64A51.42,51.42,0,0,0,21.6,94.31a51.39,51.39,0,0,0,88.06-35.46,51.29,51.29,0,0,0-50.85-52Z"/></g><path class="cls-2" d="M43.25,87.78a7,7,0,0,1-3.43-.92,6.86,6.86,0,0,1-3.52-6l0-20.38,6.17,0,0,20.38a.76.76,0,0,0,.4.68.74.74,0,0,0,.79,0c9.08-5.4,37.73-22.92,38-23.09L43.56,35.13a.79.79,0,0,0-1.2.67l0,10.69-6.16,0,0-10.69a7,7,0,0,1,10.57-6L84.87,53.08a6.19,6.19,0,0,1,0,10.57c-.29.18-29,17.72-38.08,23.14A6.94,6.94,0,0,1,43.25,87.78Z"/><rect class="cls-3" x="45.25" y="46.5" width="6.17" height="23.5"/></svg>